<svg width="80" height="80" viewBox="0 0 80 80" fill="none" xmlns="http://www.w3.org/2000/svg">
<path d="M61.9667 19.6332C57.8667 17.7332 53.5 16.3332 48.9 15.5332C48.3334 16.5332 47.6667 17.8999 47.2334 18.9999C42.3667 18.2665 37.5334 18.2665 32.7667 18.9999C32.3001 17.8999 31.6334 16.5332 31.0667 15.5332C26.4667 16.3332 22.1001 17.7332 18.0001 19.6332C9.7334 32.0999 7.50006 44.2666 8.60006 56.2333C14.1001 60.3333 19.4001 62.8 24.6334 64.4333C25.9334 62.6666 27.0667 60.7666 28.0667 58.8C26.1667 58.1 24.3667 57.2 22.6667 56.1666C23.1334 55.8333 23.5667 55.4666 24.0001 55.1333C34.4334 60 45.7334 60 56.0334 55.1333C56.4667 55.5 56.9 55.8333 57.3667 56.1666C55.6667 57.2 53.8334 58.0666 51.9667 58.8C52.9667 60.7666 54.1 62.6666 55.4 64.4333C60.6334 62.8 65.9667 60.3333 71.4334 56.2333C72.7334 42.3333 69.2 30.2999 62.0334 19.6332H61.9667ZM29.4667 48.9C26.3334 48.9 23.7667 46 23.7667 42.4333C23.7667 38.8666 26.2667 35.9666 29.4667 35.9666C32.6667 35.9666 35.2 38.8666 35.1667 42.4333C35.1667 45.9666 32.6667 48.9 29.4667 48.9ZM50.5 48.9C47.3667 48.9 44.8 46 44.8 42.4333C44.8 38.8666 47.3 35.9666 50.5 35.9666C53.7 35.9666 56.2334 38.8666 56.2 42.4333C56.2 45.9666 53.7 48.9 50.5 48.9Z" fill="#DADADA"/>
</svg>
