<svg width="80" height="80" viewBox="0 0 80 80" fill="none" xmlns="http://www.w3.org/2000/svg">
<path d="M40 3.4375C19.295 3.4375 2.51001 20.2225 2.51001 40.9275C2.51001 57.39 13.1225 71.3775 27.88 76.415L28.145 76.4925C30.02 76.845 30.7075 75.6875 30.7075 74.69C30.7075 73.8 30.6775 71.44 30.66 68.3175C20.2325 70.58 18.0325 63.2875 18.0325 63.2875C17.3125 60.975 15.8375 59.075 13.9 57.8275L13.86 57.805C10.465 55.48 14.1225 55.5275 14.1225 55.5275C16.59 55.875 18.6575 57.3225 19.845 59.3525L19.865 59.39C21.25 61.8775 23.865 63.5325 26.8675 63.5325C28.3075 63.5325 29.6575 63.1525 30.8225 62.485L30.7825 62.505C30.9625 60.5275 31.835 58.7825 33.155 57.4925L33.1575 57.49C24.8325 56.5525 16.08 53.3275 16.08 38.965C16.08 38.8975 16.0775 38.82 16.0775 38.7425C16.0775 34.94 17.545 31.48 19.945 28.8975L19.9375 28.9075C19.43 27.5525 19.135 25.9875 19.135 24.355C19.135 22.4125 19.55 20.565 20.2975 18.9L20.2625 18.985C20.2625 18.985 23.4025 17.98 30.5725 22.8275C33.3825 22.025 36.61 21.5625 39.945 21.5625C43.28 21.5625 46.5075 22.025 49.5675 22.8875L49.3175 22.8275C56.44 17.98 59.58 18.985 59.58 18.985C60.2925 20.59 60.7075 22.46 60.7075 24.4275C60.7075 26.0325 60.4325 27.5725 59.925 29.0025L59.955 28.9075C62.3375 31.4875 63.8 34.9475 63.8 38.75C63.8 38.8275 63.8 38.9025 63.7975 38.9775V38.965C63.7975 53.3675 55.035 56.5375 46.6925 57.46C48.2725 59.0775 49.2475 61.29 49.2475 63.7325C49.2475 63.965 49.2375 64.1975 49.22 64.4275L49.2225 64.3975C49.2225 69.415 49.175 73.445 49.175 74.6625C49.175 75.6475 49.83 76.8175 51.7525 76.4425C66.8225 71.37 77.4825 57.37 77.4825 40.8775C77.4825 20.1975 60.7175 3.435 40.04 3.435C40.025 3.435 40.0075 3.435 39.9925 3.435H39.995L40 3.4375Z" fill="#DADADA"/>
</svg>
