<svg width="80" height="80" viewBox="0 0 80 80" fill="none" xmlns="http://www.w3.org/2000/svg">
<path fill-rule="evenodd" clip-rule="evenodd" d="M73.3334 40C73.3334 58.4094 58.4094 73.3334 40 73.3334C21.5905 73.3334 6.66669 58.4094 6.66669 40C6.66669 21.5905 21.5905 6.66669 40 6.66669C58.4094 6.66669 73.3334 21.5905 73.3334 40ZM41.1944 31.2748C37.9524 32.6234 31.4726 35.4144 21.7553 39.648C20.1773 40.2757 19.3507 40.8897 19.2755 41.4897C19.1483 42.5044 20.4187 42.9037 22.1485 43.4477C22.3839 43.5217 22.6277 43.5984 22.8776 43.6794C24.5795 44.2327 26.869 44.88 28.0591 44.9057C29.1387 44.929 30.3437 44.484 31.674 43.5704C40.7534 37.4417 45.44 34.344 45.734 34.277C45.9417 34.23 46.2294 34.1707 46.4244 34.344C46.6194 34.5174 46.6 34.8454 46.5794 34.9334C46.4537 35.47 41.467 40.106 38.8864 42.505C38.082 43.253 37.5114 43.7834 37.3947 43.9047C37.1334 44.176 36.867 44.4327 36.611 44.6794C35.03 46.2037 33.844 47.3467 36.6767 49.2134C38.038 50.1104 39.127 50.852 40.2137 51.592C41.4004 52.4004 42.584 53.2064 44.1157 54.2104C44.5057 54.466 44.8784 54.7317 45.2414 54.9904C46.6224 55.975 47.863 56.8597 49.396 56.7183C50.2867 56.6367 51.2067 55.799 51.674 53.301C52.7784 47.3977 54.949 34.6067 55.4507 29.3361C55.4947 28.8743 55.4394 28.2833 55.395 28.0239C55.3504 27.7644 55.2577 27.3948 54.9204 27.1211C54.521 26.7971 53.9047 26.7287 53.6287 26.7334C52.375 26.7557 50.4514 27.4245 41.1944 31.2748Z" fill="#DADADA"/>
</svg>
