<svg width="80" height="80" viewBox="0 0 80 80" fill="none" xmlns="http://www.w3.org/2000/svg">
<path fill-rule="evenodd" clip-rule="evenodd" d="M11.3333 11.3334C6.66663 16.0445 6.66663 23.5778 6.66663 38.6667V41.3334C6.66663 56.4 6.66663 63.9334 11.3333 68.6667C16.0444 73.3334 23.5777 73.3334 38.6666 73.3334H41.3333C56.4 73.3334 63.9333 73.3334 68.6666 68.6667C73.3333 63.9557 73.3333 56.4224 73.3333 41.3334V38.6667C73.3333 23.6 73.3333 16.0667 68.6666 11.3334C63.9556 6.66669 56.4223 6.66669 41.3333 6.66669H38.6666C23.6 6.66669 16.0666 6.66669 11.3333 11.3334ZM17.9111 26.9556C18.2666 44.289 26.9333 54.689 42.1333 54.689H43.0223V44.7777C48.6 45.3334 52.8223 49.4224 54.511 54.689H62.4C61.591 51.6964 60.1563 48.909 58.1913 46.511C56.2263 44.1134 53.7753 42.1594 51 40.7777C53.487 39.2634 55.635 37.252 57.3096 34.87C58.9843 32.488 60.15 29.7862 60.7333 26.9334H53.5776C52.0223 32.4445 47.4 37.4444 43.0223 37.911V26.9556H35.8443V46.1557C31.4 45.0444 25.8 39.6667 25.5555 26.9556H17.9111Z" fill="#DADADA"/>
</svg>
